{"title":"8 Seconds (1994) Luke Perry [The Bull Riding World Champion]","uid":4239625,"size":735399936,"categoryP":"video","categoryS":"movies","magnet":"?xt=urn:btih:62633b63a04e88debe5aac958e1cf87c8fb91acc&amp;dn=8+Seconds+%281994%29+Luke+Perry+%5BThe+Bull+Riding+World+Champion%5D&amp;tr=udp%3A%2F%2Ftracker.openbittorrent.com%3A80&amp;tr=udp%3A%2F%2Fopen.demonii.com%3A1337&amp;tr=udp%3A%2F%2Ftracker.coppersurfer.tk%3A6969&amp;tr=udp%3A%2F%2Fexodus.desync.com%3A6969","seeders":23,"leechers":1,"uploader":"Kuthumi","files":-1,"time":1213473020,"description":" &lt;a href=&quot;http://www.imdb.com/title/tt0109021/&quot; rel=&quot;nofollow&quot; target=&quot;_NEW&quot;&gt;http://www.imdb.com/title/tt0109021/&lt;/a&gt;\n\n6 years before he appeared in Beverly Hills 90210, Luke Perry starred in this heartwarming tale of Oklahoma bull rider Lane Frost. Hard work and faith led Frost to winning the 1987 PRCA Bull Riding World Championship.\n\nFor those who don't know, 8 seconds is the length of time one has to remain on the back of bucking bull in the riding event at a rodeo.\n\nThis is not my rip. I found this torrent on the net using PirateBay's tracker, so I thought it should be represented here. \n\nDVDrip fullscreen 464x352, good stereo sound.\n\nBurn tested, runs well in my standalone DivX player.\n\nFormat/Info                      : Audio Video Interleave\nFile size                        : 701 MiB\nDuration                         : 1h 44mn\nOveral bit rate                  : 939 Kbps\nWriting application              : VirtualDubMod 1.5.4.1 (build 2178/release)\nWriting library                  : VirtualDubMod build 2178/release\nIAS1                             : English\n\nVideo\nFormat                           : MPEG-4 Visual\nFormat profile                   : Streaming Video@L1\nFormat settings, BVOP            : Yes\nFormat settings, QPel            : No\nFormat settings, GMC             : No warppoints\nFormat settings, Matrix          : Custom\nCodec ID                         : XVID\nCodec ID/Hint                    : XviD\nDuration                         : 1h 44mn\nBit rate                         : 662 Kbps\nWidth                            : 464 pixels\nHeight                           : 352 pixels\nDisplay aspect ratio             : 4/3\nFrame rate                       : 23.976 fps\nResolution                       : 8 bits\nColorimetry                      : 4:2:0\nScan type                        : Progressive\nBits/(Pixel*Frame)               : 0.169\nStream size                      : 495 MiB\nWriting library                  : XviD 1.2.0SMP (UTC 2006-01-08)\n\nAudio\nFormat                           : MPEG Audio\nFormat version                   : Version 1\nFormat profile                   : Layer 3\nCodec ID                         : 55\nCodec ID/Hint                    : MP3\nDuration                         : 1h 44mn\nBit rate mode                    : Variable\nBit rate                         : 141 Kbps\nMinimum bit rate                 : 160 Kbps\nChannel(s)                       : 2 channels\nSampling rate                    : 48.0 KHz\nResolution                       : 16 bits\nStream size                      : 89.1 MiB\nWriting library                  : LAME3.97b\nEncoding settings                : ABR\n","torrent":{"xt":"urn:btih:62633b63a04e88debe5aac958e1cf87c8fb91acc","amp;dn":"8+Seconds+%281994%29+Luke+Perry+%5BThe+Bull+Riding+World+Champion%5D","amp;tr":["udp%3A%2F%2Ftracker.openbittorrent.com%3A80","udp%3A%2F%2Fopen.demonii.com%3A1337","udp%3A%2F%2Ftracker.coppersurfer.tk%3A6969","udp%3A%2F%2Fexodus.desync.com%3A6969"],"infoHash":"62633b63a04e88debe5aac958e1cf87c8fb91acc","infoHashBuffer":{"type":"Buffer","data":[98,99,59,99,160,78,136,222,190,90,172,149,142,28,248,124,143,185,26,204]},"announce":[],"urlList":[]}}